<svg width="34" height="34" viewBox="0 0 34 34" fill="none" xmlns="http://www.w3.org/2000/svg">
<path d="M11.3332 4.25C12.0415 4.25 14.8748 10.625 14.8748 11.3333C14.8748 12.75 12.7498 14.1667 12.0415 15.5833C11.3332 17 12.7498 18.4167 14.1665 19.8333C14.719 20.3858 16.9998 22.6667 18.4165 21.9583C19.8332 21.25 21.2498 19.125 22.6665 19.125C23.3748 19.125 29.7498 21.9583 29.7498 22.6667C29.7498 25.5 27.6248 27.625 25.4998 28.3333C23.3748 29.0417 21.9582 29.0417 19.1248 28.3333C16.2915 27.625 14.1665 26.9167 10.6248 23.375C7.08317 19.8333 6.37484 17.7083 5.6665 14.875C4.95817 12.0417 4.95817 10.625 5.6665 8.5C6.37484 6.375 8.49984 4.25 11.3332 4.25Z" stroke="#065A82" stroke-width="2" stroke-linecap="round" stroke-linejoin="round"/>
</svg>
