<svg width="34" height="34" viewBox="0 0 34 34" fill="none" xmlns="http://www.w3.org/2000/svg">
<path d="M17.0002 2.83331C9.18016 2.83331 2.8335 9.17998 2.8335 17C2.8335 24.82 9.18016 31.1666 17.0002 31.1666C24.8202 31.1666 31.1668 24.82 31.1668 17C31.1668 9.17998 24.8202 2.83331 17.0002 2.83331ZM23.5735 12.4666C23.361 14.705 22.4402 20.145 21.9727 22.6525C21.7743 23.715 21.3777 24.0691 21.0093 24.1116C20.1877 24.1825 19.5643 23.5733 18.771 23.0491C17.5243 22.2275 16.816 21.7175 15.6118 20.9241C14.2093 20.0033 15.116 19.4933 15.9235 18.6716C16.136 18.4591 19.7627 15.1583 19.8335 14.8608C19.8433 14.8158 19.842 14.769 19.8297 14.7245C19.8173 14.6801 19.7943 14.6393 19.7627 14.6058C19.6777 14.535 19.5643 14.5633 19.4652 14.5775C19.3377 14.6058 17.3543 15.9233 13.4868 18.53C12.9202 18.9125 12.4102 19.1108 11.9568 19.0966C11.4468 19.0825 10.4835 18.8133 9.761 18.5725C8.8685 18.2891 8.17433 18.1333 8.231 17.6375C8.25933 17.3825 8.6135 17.1275 9.27933 16.8583C13.416 15.0591 16.1643 13.8691 17.5385 13.3025C21.4768 11.6591 22.2843 11.3758 22.8227 11.3758C22.936 11.3758 23.2052 11.4041 23.3752 11.5458C23.5168 11.6591 23.5593 11.815 23.5735 11.9283C23.5593 12.0133 23.5877 12.2683 23.5735 12.4666Z" fill="#065A82"/>
</svg>
