<svg width="30" height="30" viewBox="0 0 30 30" fill="none" xmlns="http://www.w3.org/2000/svg">
<g clip-path="url(#clip0_997_220)">
<path d="M6.3 9.6C2.8377 9.6 0 12.429 0 15.882C0 17.22 0.4272 18.4635 1.1505 19.4856L5.5314 27.0588C6.1449 27.8604 6.5529 27.7083 7.0632 27.0168L11.895 18.7938C11.9925 18.6168 12.069 18.429 12.1359 18.237C12.4423 17.4897 12.5999 16.6897 12.6 15.882C12.6 12.429 9.7632 9.6 6.3 9.6ZM6.3 12.5436C8.1648 12.5436 9.648 14.0229 9.648 15.8823C9.648 17.7417 8.1645 19.2204 6.3 19.2204C4.4355 19.2204 2.952 17.7414 2.952 15.8823C2.952 14.0232 4.4358 12.5436 6.3 12.5436ZM26.325 0C24.3054 0 22.65 1.6503 22.65 3.6648C22.65 4.4451 22.899 5.1705 23.3211 5.7666L25.8768 10.1844C26.2347 10.6518 26.4726 10.563 26.7702 10.1598L29.5887 5.3628C29.6457 5.2599 29.6904 5.1504 29.7291 5.0382C29.9084 4.60254 30.0004 4.13592 30 3.6648C30 1.65 28.3452 0 26.325 0ZM26.325 1.7172C27.4128 1.7172 28.278 2.58 28.278 3.6648C28.278 4.7496 27.4128 5.6118 26.325 5.6118C25.2372 5.6118 24.372 4.7493 24.372 3.6648C24.372 2.5803 25.2375 1.7172 26.325 1.7172Z" fill="#1B3B6F"/>
<path fill-rule="evenodd" clip-rule="evenodd" d="M26.4628 11.2236C25.7887 11.2386 25.1128 11.2671 24.4357 11.3172L24.5401 12.9768C25.1906 12.9297 25.8421 12.8993 26.494 12.8859L26.4628 11.2236ZM22.8703 11.4696C21.8293 11.5989 20.7793 11.7831 19.7413 12.0792L20.1322 13.6875C21.0754 13.4187 22.0528 13.245 23.0455 13.1217L22.8703 11.4696ZM18.187 12.636C17.876 12.7733 17.5749 12.932 17.2858 13.1109L17.2846 13.1124L17.2828 13.113C16.8703 13.3728 16.4356 13.7025 16.0807 14.1816C15.8236 14.5287 15.6133 14.9676 15.5641 15.4866L17.0926 15.6561C17.104 15.5343 17.1664 15.3735 17.2786 15.2223H17.2792V15.2217C17.4601 14.9769 17.7313 14.7546 18.0538 14.5512L18.055 14.5506C18.2851 14.409 18.5244 14.2831 18.7714 14.1738L18.187 12.636ZM17.4001 16.3965L16.4092 17.667C16.6441 17.8818 16.8904 18.0468 17.1283 18.1848L17.1313 18.1863L17.1343 18.1881C17.9239 18.6372 18.7381 18.8907 19.4929 19.1313L19.9267 17.5359C19.1722 17.2953 18.4609 17.0631 17.8513 16.7169C17.6767 16.6155 17.5237 16.5096 17.4001 16.3965ZM21.4006 17.9847L20.977 19.5828L21.1774 19.6452L21.4234 19.7238C22.2376 19.9887 23.0176 20.2716 23.7148 20.6631L24.4222 19.1871C23.5792 18.7134 22.7041 18.4038 21.8608 18.1296L21.8584 18.129L21.6058 18.0483L21.4006 17.9847ZM25.8607 20.2947L24.7738 21.4707C25.0306 21.7488 25.2229 22.0833 25.3165 22.4289L25.3171 22.4307L25.3177 22.4334C25.4293 22.8369 25.4296 23.3115 25.3423 23.7909L26.8495 24.1125C26.9725 23.4357 26.9923 22.6926 26.7901 21.9591C26.614 21.3105 26.278 20.7471 25.8607 20.2947ZM24.8161 24.7929C24.6498 24.9681 24.4663 25.1261 24.2683 25.2645H24.2677C23.7277 25.6443 23.1013 25.9305 22.4359 26.1765L22.9321 27.7497C23.6599 27.4806 24.4072 27.1506 25.1056 26.6592L25.1074 26.6577L25.1083 26.6571C25.3951 26.4562 25.6604 26.2263 25.9 25.971L24.8161 24.7929ZM21.0241 26.6196C20.0602 26.8788 19.075 27.0762 18.0778 27.2436L18.313 28.8873C19.3393 28.7148 20.3698 28.5087 21.394 28.2333L21.0241 26.6196ZM16.5775 27.4704C15.5737 27.6075 14.5645 27.7194 13.5523 27.8148L13.6849 29.4714C14.7127 29.3748 15.7423 29.2611 16.7704 29.1204L16.5775 27.4704ZM12.031 27.9453C11.0167 28.0257 10 28.0911 8.98244 28.1463L9.05924 29.8071C10.0867 29.7516 11.1151 29.6853 12.1432 29.6037L12.031 27.9453ZM7.45334 28.2213C6.84344 28.2498 6.23204 28.2732 5.61914 28.2948L5.66954 29.9571C6.28627 29.9359 6.90288 29.9113 7.51934 29.8833L7.45334 28.2213Z" fill="#1B3B6F"/>
</g>
<defs>
<clipPath id="clip0_997_220">
<rect width="30" height="30" fill="white"/>
</clipPath>
</defs>
</svg>
