<svg width="30" height="30" viewBox="0 0 30 30" fill="none" xmlns="http://www.w3.org/2000/svg">
<path d="M4.37491 10C4.37516 8.8149 4.68175 7.64998 5.26493 6.61829C5.84812 5.5866 6.68809 4.72319 7.70333 4.11183C8.71858 3.50048 9.87462 3.16194 11.0593 3.12908C12.2439 3.09622 13.417 3.37014 14.4645 3.92428C15.5121 4.47841 16.3986 5.29393 17.0381 6.2917C17.6776 7.28947 18.0483 8.4356 18.1143 9.61887C18.1802 10.8021 17.9392 11.9824 17.4145 13.045C16.8899 14.1077 16.0994 15.0166 15.1199 15.6838C17.2293 16.4574 19.0589 17.8446 20.3732 19.6669C21.6875 21.4891 22.4265 23.663 22.4949 25.9088C22.492 26.1509 22.3956 26.3825 22.226 26.5553C22.0563 26.728 21.8264 26.8285 21.5844 26.8358C21.3423 26.8431 21.1069 26.7565 20.9271 26.5942C20.7474 26.432 20.6373 26.2065 20.6199 25.965C20.5455 23.5293 19.5256 21.2183 17.7764 19.5218C16.0272 17.8252 13.6861 16.8764 11.2493 16.8764C8.81247 16.8764 6.4714 17.8252 4.72219 19.5218C2.97299 21.2183 1.9531 23.5293 1.87866 25.965C1.86614 26.2098 1.75826 26.44 1.57811 26.6062C1.39796 26.7724 1.15988 26.8614 0.914876 26.8542C0.66987 26.847 0.437425 26.7442 0.267336 26.5677C0.0972479 26.3912 0.00304543 26.1551 0.00490997 25.91C0.0730992 23.664 0.811919 21.4899 2.12627 19.6674C3.44062 17.8449 5.27034 16.4575 7.37991 15.6838C6.45376 15.053 5.69582 14.2054 5.17208 13.2148C4.64834 12.2242 4.37468 11.1205 4.37491 10ZM11.2499 5C9.92383 5 8.65206 5.52679 7.71438 6.46447C6.77669 7.40215 6.24991 8.67392 6.24991 10C6.24991 11.3261 6.77669 12.5979 7.71438 13.5355C8.65206 14.4732 9.92383 15 11.2499 15C12.576 15 13.8478 14.4732 14.7854 13.5355C15.7231 12.5979 16.2499 11.3261 16.2499 10C16.2499 8.67392 15.7231 7.40215 14.7854 6.46447C13.8478 5.52679 12.576 5 11.2499 5ZM21.6124 10C21.4282 10 21.2474 10.0125 21.0699 10.0375C20.946 10.0597 20.8189 10.0567 20.6961 10.0287C20.5734 10.0007 20.4575 9.94824 20.3555 9.87449C20.2535 9.80073 20.1673 9.70719 20.1022 9.59943C20.0371 9.49166 19.9944 9.37189 19.9766 9.24726C19.9588 9.12263 19.9663 8.99569 19.9986 8.87401C20.0309 8.75233 20.0874 8.63841 20.1647 8.53904C20.242 8.43967 20.3385 8.35688 20.4485 8.29563C20.5585 8.23437 20.6797 8.1959 20.8049 8.1825C22.0481 8.00276 23.3158 8.2415 24.4085 8.86116C25.5012 9.48081 26.3568 10.4462 26.8407 11.6054C27.3246 12.7646 27.4093 14.0518 27.0815 15.2644C26.7537 16.477 26.0319 17.5462 25.0299 18.3038C26.5029 18.9633 27.7536 20.035 28.631 21.3895C29.5084 22.7441 29.9752 24.3236 29.9749 25.9375C29.9749 26.1861 29.8761 26.4246 29.7003 26.6004C29.5245 26.7762 29.2861 26.875 29.0374 26.875C28.7888 26.875 28.5503 26.7762 28.3745 26.6004C28.1987 26.4246 28.0999 26.1861 28.0999 25.9375C28.1004 24.5425 27.6512 23.1846 26.819 22.0651C25.9867 20.9455 24.8158 20.1241 23.4799 19.7225L22.8124 19.5225V17.4275L23.3249 17.1663C24.0846 16.7814 24.6924 16.1518 25.0503 15.3791C25.4081 14.6063 25.4951 13.7355 25.2972 12.9072C25.0993 12.0789 24.628 11.3415 23.9594 10.814C23.2908 10.2866 22.464 9.99978 21.6124 10Z" fill="#1B3B6F"/>
</svg>
