<svg width="56" height="56" viewBox="0 0 56 56" fill="none" xmlns="http://www.w3.org/2000/svg">
<path d="M7 15.75C7 13.4294 7.92187 11.2038 9.56282 9.56282C11.2038 7.92187 13.4294 7 15.75 7H40.25C42.5706 7 44.7962 7.92187 46.4372 9.56282C48.0781 11.2038 49 13.4294 49 15.75V40.25C49 42.5706 48.0781 44.7962 46.4372 46.4372C44.7962 48.0781 42.5706 49 40.25 49H15.75C13.4294 49 11.2038 48.0781 9.56282 46.4372C7.92187 44.7962 7 42.5706 7 40.25V15.75ZM15.75 10.5C14.3576 10.5 13.0223 11.0531 12.0377 12.0377C11.0531 13.0223 10.5 14.3576 10.5 15.75V17.5H26.25V10.5H15.75ZM29.75 10.5V35H45.5V15.75C45.5 14.3576 44.9469 13.0223 43.9623 12.0377C42.9777 11.0531 41.6424 10.5 40.25 10.5H29.75ZM45.5 38.5H29.75V45.5H40.25C41.6424 45.5 42.9777 44.9469 43.9623 43.9623C44.9469 42.9777 45.5 41.6424 45.5 40.25V38.5ZM26.25 45.5V21H10.5V40.25C10.5 41.6424 11.0531 42.9777 12.0377 43.9623C13.0223 44.9469 14.3576 45.5 15.75 45.5H26.25Z" fill="#F8FAFC"/>
</svg>
