<svg width="56" height="56" viewBox="0 0 56 56" fill="none" xmlns="http://www.w3.org/2000/svg">
<path d="M18.6668 7C19.8335 7 24.5002 17.5 24.5002 18.6667C24.5002 21 21.0002 23.3333 19.8335 25.6667C18.6668 28 21.0002 30.3333 23.3335 32.6667C24.2435 33.5767 28.0002 37.3333 30.3335 36.1667C32.6668 35 35.0002 31.5 37.3335 31.5C38.5002 31.5 49.0002 36.1667 49.0002 37.3333C49.0002 42 45.5002 45.5 42.0002 46.6667C38.5002 47.8333 36.1668 47.8333 31.5002 46.6667C26.8335 45.5 23.3335 44.3333 17.5002 38.5C11.6668 32.6667 10.5002 29.1667 9.3335 24.5C8.16683 19.8333 8.16683 17.5 9.3335 14C10.5002 10.5 14.0002 7 18.6668 7Z" stroke="#F8FAFC" stroke-width="2" stroke-linecap="round" stroke-linejoin="round"/>
</svg>
