<svg width="56" height="56" viewBox="0 0 56 56" fill="none" xmlns="http://www.w3.org/2000/svg">
<path d="M19.25 47.25C20.2165 47.25 21 46.4665 21 45.5C21 44.5335 20.2165 43.75 19.25 43.75C18.2835 43.75 17.5 44.5335 17.5 45.5C17.5 46.4665 18.2835 47.25 19.25 47.25Z" stroke="#F8FAFC" stroke-width="2" stroke-linecap="round" stroke-linejoin="round"/>
<path d="M43.75 47.25C44.7165 47.25 45.5 46.4665 45.5 45.5C45.5 44.5335 44.7165 43.75 43.75 43.75C42.7835 43.75 42 44.5335 42 45.5C42 46.4665 42.7835 47.25 43.75 47.25Z" stroke="#F8FAFC" stroke-width="2" stroke-linecap="round" stroke-linejoin="round"/>
<path d="M5.25 8.75H12.25L17.5 38.5H45.5" stroke="#F8FAFC" stroke-width="2" stroke-linecap="round" stroke-linejoin="round"/>
<path d="M17.5 31.5H44.7825C44.9849 31.5001 45.181 31.4301 45.3376 31.3019C45.4941 31.1737 45.6014 30.9951 45.6411 30.7967L48.7911 15.0467C48.8165 14.9197 48.8134 14.7887 48.782 14.663C48.7507 14.5373 48.6918 14.4202 48.6096 14.3201C48.5275 14.2199 48.4241 14.1393 48.307 14.0839C48.1899 14.0286 48.062 13.9999 47.9325 14H14" stroke="#F8FAFC" stroke-width="2" stroke-linecap="round" stroke-linejoin="round"/>
</svg>
